<svg width="21" height="20" viewBox="0 0 21 20" fill="none" xmlns="http://www.w3.org/2000/svg">
<g id="Check line">
<path id="Vector (Stroke)" fill-rule="evenodd" clip-rule="evenodd" d="M10.5 2C6.08172 2 2.5 5.58172 2.5 10C2.5 14.4183 6.08172 18 10.5 18C14.9183 18 18.5 14.4183 18.5 10C18.5 5.58172 14.9183 2 10.5 2ZM0.5 10C0.5 4.47715 4.97715 0 10.5 0C16.0228 0 20.5 4.47715 20.5 10C20.5 15.5228 16.0228 20 10.5 20C4.97715 20 0.5 15.5228 0.5 10ZM15.1402 6.23178C15.5645 6.58534 15.6218 7.21591 15.2682 7.64018L11.6703 11.9577C11.6579 11.9725 11.6456 11.9873 11.6333 12.0021C11.3377 12.3569 11.0534 12.6983 10.7823 12.9448C10.4787 13.221 10.0728 13.4916 9.52343 13.5165C8.97402 13.5415 8.5453 13.3087 8.21794 13.0611C7.9257 12.8402 7.61161 12.526 7.28512 12.1993C7.27153 12.1857 7.25792 12.1721 7.24428 12.1585L5.79289 10.7071C5.40237 10.3166 5.40237 9.68342 5.79289 9.29289C6.18342 8.90237 6.81658 8.90237 7.20711 9.29289L8.6585 10.7443C9.04146 11.1272 9.25643 11.339 9.42422 11.4659C9.42639 11.4675 9.42853 11.4691 9.43063 11.4707C9.43258 11.4689 9.43456 11.4671 9.43658 11.4653C9.59219 11.3238 9.78711 11.0934 10.1338 10.6774L13.7318 6.35982C14.0853 5.93554 14.7159 5.87821 15.1402 6.23178Z" fill="currentColor"/>
</g>
</svg>
